{"title":"JULAYI DVD 4","uid":7762814,"size":4680820736,"categoryP":"video","categoryS":"movies","magnet":"?xt=urn:btih:63919bc682cc84a83ea4f8d5b532c2d66af03545&amp;dn=JULAYI+DVD+4&amp;tr=udp%3A%2F%2Ftracker.openbittorrent.com%3A80&amp;tr=udp%3A%2F%2Fopen.demonii.com%3A1337&amp;tr=udp%3A%2F%2Ftracker.coppersurfer.tk%3A6969&amp;tr=udp%3A%2F%2Fexodus.desync.com%3A6969","seeders":0,"leechers":0,"uploader":"mur3949","files":11,"time":1351281298,"description":"General\nComplete name                    : JULAYI\nFormat                           : MPEG-PS\nFile size                        : 4GB\nOverall bit rate                 : 3 766 Kbps\n\nVideo\nID                               : 224 (0xE0)\nFormat                           : MPEG Video\nFormat version                   : Version 2\nFormat profile                   : Main@Main\nFormat settings, BVOP            : Yes\nFormat settings, Matrix          : Default\nDuration                         : 38mn 0s\nBit rate mode                    : Constant\nBit rate                         : 3 243 Kbps\nNominal bit rate                 : 5 200 Kbps\nWidth                            : 720 pixels\nHeight                           : 480 pixels\nDisplay aspect ratio             : 16:9\nFrame rate                       : 23.976 fps\nStandard                         : NTSC\nColor space                      : YUV\nChroma subsampling               : 4:2:0\nBit depth                        : 8 bits\nScan type                        : Progressive\nScan order                       : 2:3 Pulldown\nCompression mode                 : Lossy\nBits/(Pixel*Frame)               : 0.391\nStream size                      : 882 MiB (86%)\n\nAudio\nID                               : 128 (0x80)\nFormat                           : AC-3\nFormat/Info                      : Audio Coding 3\nMode extension                   : CM (complete main)\nDuration                         : 38mn 0s\nBit rate mode                    : Constant\nBit rate                         : 448 Kbps\nChannel(s)                       : 6 channels\nChannel positions                : Front: L C R, Side: L R, LFE\nSampling rate                    : 48.0 KHz\nBit depth                        : 16 bits\nCompression mode                 : Lossy\nStream size                      : 122 MiB (12%)","torrent":{"xt":"urn:btih:63919bc682cc84a83ea4f8d5b532c2d66af03545","amp;dn":"JULAYI+DVD+4","amp;tr":["udp%3A%2F%2Ftracker.openbittorrent.com%3A80","udp%3A%2F%2Fopen.demonii.com%3A1337","udp%3A%2F%2Ftracker.coppersurfer.tk%3A6969","udp%3A%2F%2Fexodus.desync.com%3A6969"],"infoHash":"63919bc682cc84a83ea4f8d5b532c2d66af03545","infoHashBuffer":{"type":"Buffer","data":[99,145,155,198,130,204,132,168,62,164,248,213,181,50,194,214,106,240,53,69]},"announce":[],"urlList":[]}}